<?xml version="1.0" encoding="utf-8"?>
<!-- Generator: Adobe Illustrator 24.2.1, SVG Export Plug-In . SVG Version: 6.00 Build 0)  -->
<svg version="1.1" id="Layer_1" xmlns="http://www.w3.org/2000/svg" xmlns:xlink="http://www.w3.org/1999/xlink" x="0px" y="0px"
	 viewBox="0 0 512 512" style="enable-background:new 0 0 512 512;" xml:space="preserve">
<style type="text/css">
	.st0{fill:#173A79;}
	.st1{fill:#FFFFFF;}
</style>
<circle class="st0" cx="255.5" cy="255" r="256"/>
<g>
	<g>
		<path class="st1" d="M150.3,282.8c-11.9,4.9-17.6,18.7-12.7,30.6c3.7,9,12.5,14.5,21.7,14.5c3,0,6-0.6,8.9-1.8
			c11.9-4.9,17.6-18.7,12.7-30.6C176,283.5,162.3,277.9,150.3,282.8z M163.8,315.3c-6,2.5-12.8-0.4-15.3-6.3
			c-2.5-6,0.4-12.8,6.3-15.3c1.5-0.6,3-0.9,4.5-0.9c4.6,0,9,2.7,10.8,7.2C172.6,305.9,169.7,312.8,163.8,315.3L163.8,315.3z"/>
		<path class="st1" d="M137.6,245.2c2.4,5.8,6.9,10.3,12.7,12.7c2.9,1.2,6,1.8,8.9,1.8c9.2,0,17.9-5.5,21.7-14.5
			c4.9-11.9-0.7-25.7-12.7-30.6c-5.8-2.4-12.2-2.4-17.9,0c-5.8,2.4-10.3,6.9-12.7,12.7C135.2,233,135.2,239.4,137.6,245.2
			L137.6,245.2z M148.5,231.7c1.2-2.9,3.4-5.1,6.3-6.3c1.4-0.6,3-0.9,4.5-0.9s3,0.3,4.5,0.9c6,2.5,8.8,9.3,6.3,15.3
			c-2.5,6-9.3,8.8-15.3,6.3c-2.9-1.2-5.1-3.4-6.3-6.3C147.3,237.8,147.3,234.6,148.5,231.7L148.5,231.7z"/>
		<path class="st1" d="M198.6,209.6c2.9,1.2,5.9,1.8,9,1.8c3,0,6.1-0.6,9-1.8c5.8-2.4,10.3-6.9,12.7-12.7c2.4-5.8,2.4-12.2,0-17.9
			c-2.4-5.8-6.9-10.3-12.7-12.7s-12.2-2.4-17.9,0c-5.8,2.4-10.3,6.9-12.7,12.7c-2.4,5.8-2.4,12.2,0,17.9
			C188.3,202.7,192.8,207.2,198.6,209.6L198.6,209.6z M196.7,183.5c1.2-2.9,3.4-5.1,6.3-6.3c1.4-0.6,3-0.9,4.5-0.9
			c1.5,0,3,0.3,4.5,0.9c2.9,1.2,5.1,3.4,6.3,6.3c1.2,2.9,1.2,6.1,0,9c-1.2,2.9-3.4,5.1-6.3,6.3c-2.9,1.2-6.1,1.2-9,0
			c-2.9-1.2-5.1-3.5-6.3-6.3C195.5,189.5,195.5,186.3,196.7,183.5L196.7,183.5z"/>
		<path class="st1" d="M198.6,374.4c2.9,1.2,6,1.8,8.9,1.8c9.2,0,17.9-5.5,21.7-14.5c2.4-5.8,2.4-12.2,0-17.9s-6.9-10.3-12.7-12.7
			c-5.8-2.4-12.2-2.4-17.9,0c-5.8,2.4-10.3,6.9-12.7,12.7C180.9,355.7,186.6,369.4,198.6,374.4L198.6,374.4z M196.7,348.2
			c1.2-2.9,3.5-5.1,6.3-6.3c1.4-0.6,3-0.9,4.5-0.9c1.5,0,3,0.3,4.5,0.9c2.9,1.2,5.1,3.4,6.3,6.3c1.2,2.9,1.2,6.1,0,9
			c-2.5,6-9.3,8.8-15.3,6.3C197.1,361.1,194.2,354.2,196.7,348.2L196.7,348.2z"/>
		<path class="st1" d="M266.8,374.4c2.9,1.2,5.9,1.8,9,1.8c3,0,6.1-0.6,9-1.8c5.8-2.4,10.3-6.9,12.7-12.7c2.4-5.8,2.4-12.2,0-17.9
			c-2.4-5.8-6.9-10.3-12.7-12.7c-5.8-2.4-12.2-2.4-17.9,0c-11.9,4.9-17.6,18.7-12.7,30.6C256.5,367.5,261,372,266.8,374.4z
			 M271.3,341.9c1.4-0.6,3-0.9,4.5-0.9s3,0.3,4.5,0.9c2.9,1.2,5.1,3.4,6.3,6.3c1.2,2.9,1.2,6.1,0,9c-1.2,2.9-3.4,5.1-6.3,6.3
			c-2.9,1.2-6.1,1.2-9,0c-2.9-1.2-5.1-3.4-6.3-6.3C262.5,351.2,265.3,344.4,271.3,341.9L271.3,341.9z"/>
		<path class="st1" d="M324,327.9c9.2,0,17.9-5.5,21.7-14.5c2.4-5.8,2.4-12.2,0-17.9c-2.4-5.8-6.9-10.3-12.7-12.7
			c-11.9-4.9-25.7,0.7-30.6,12.7c-4.9,11.9,0.7,25.7,12.7,30.6C318,327.3,321.1,327.9,324,327.9z M313.2,300c2.5-6,9.3-8.8,15.3-6.3
			c6,2.5,8.8,9.3,6.3,15.3c-2.5,6-9.3,8.8-15.3,6.3C313.6,312.8,310.8,306,313.2,300L313.2,300z"/>
		<path class="st1" d="M401.1,110.9c-6.5-6.5-17-6.6-23.9-0.1L287.5,195c-1.6-4.7-2.4-9.7-2.4-14.6c0-2.8,0.6-5.8,1.2-9.1
			c1.4-7.2,3-15.3-2.2-22.4c-4.7-6.4-13.8-10.1-28.8-11.7c-31.1-3.4-62.5,4.2-88.5,21.3c-2.7,1.8-3.5,5.4-1.7,8.1
			c1.8,2.7,5.4,3.5,8.1,1.7c23.7-15.6,52.4-22.5,80.8-19.4c13.9,1.5,18.9,4.6,20.6,7c2,2.7,1.4,6.8,0.1,13.1
			c-0.7,3.7-1.5,7.5-1.5,11.4c0.1,8,1.8,15.9,5,23.2l-36.3,34.1c-26.5,7.6-27.1,23.4-27.6,36.1c-0.3,8.6-0.6,16-7.2,22.6
			c-1.3,1.3-1.9,3.1-1.7,4.9c0.2,1.8,1.3,3.4,2.9,4.3c4.7,2.7,10.6,4,17.1,4c9.1,0,19.1-2.6,27.7-7.5c13.2-7.6,20.7-19.1,21.5-32.7
			l33.6-35.8c7.3,3.2,15.2,4.9,23.2,5c4,0,7.7-0.7,11.4-1.5c6.4-1.3,10.4-1.9,13.2,0.1c2.4,1.7,5.5,6.7,7,20.6
			c4,37.3-8.8,73.8-35.3,100.3c-48,48-126,48-174,0c-41.1-41.1-47.8-106-15.9-154.5c1.8-2.7,1-6.3-1.7-8.1c-2.7-1.8-6.3-1-8.1,1.7
			c-16.8,25.5-24.4,56.4-21.4,87c3,31,16.8,60.2,38.8,82.2c25.5,25.5,59.3,39.5,95.3,39.5s69.8-14,95.3-39.5
			c29-29,43.1-69,38.7-109.9c-1.6-15-5.3-24.1-11.7-28.8c-7.1-5.2-15.2-3.6-22.4-2.2c-3.2,0.6-6.3,1.3-9.1,1.2
			c-5,0-9.9-0.9-14.6-2.4l84.2-89.7C407.7,128,407.6,117.5,401.1,110.9L401.1,110.9z M247.3,292.1c-9,5.2-19,6.7-26.4,5.7
			c4.6-8,4.9-16.3,5.1-23.3c0.4-11.6,0.7-19.5,17.1-24.7l19.8,19.8C261.9,281.8,252.8,288.9,247.3,292.1L247.3,292.1z M392.7,126.8
			L268.8,258.7l-15.5-15.5l131.9-123.9c2.2-2.1,5.6-2.2,7.6-0.1C394.8,121.2,394.7,124.6,392.7,126.8L392.7,126.8z"/>
		<path class="st1" d="M149.6,186c3.2,0,5.9-2.6,5.9-5.9c0-3.2-2.6-5.9-5.9-5.9h0c-3.2,0-5.9,2.6-5.9,5.9S146.4,186,149.6,186z"/>
	</g>
</g>
</svg>
