<?xml version="1.0" encoding="utf-8"?>
<!-- Generator: Adobe Illustrator 24.2.1, SVG Export Plug-In . SVG Version: 6.00 Build 0)  -->
<svg version="1.1" id="Capa_1" xmlns="http://www.w3.org/2000/svg" xmlns:xlink="http://www.w3.org/1999/xlink" x="0px" y="0px"
	 viewBox="0 0 512 512" style="enable-background:new 0 0 512 512;" xml:space="preserve">
<style type="text/css">
	.st0{fill:#173A79;}
	.st1{fill:#FFFFFF;}
</style>
<circle class="st0" cx="256" cy="256" r="256"/>
<g>
	<g>
		<path class="st1" d="M243.4,171.7h-60.7c-2.4,0-4.4,2-4.4,4.4c0,2.4,2,4.4,4.4,4.4h60.7c2.4,0,4.4-2,4.4-4.4
			C247.8,173.6,245.8,171.7,243.4,171.7z"/>
	</g>
</g>
<g>
	<g>
		<path class="st1" d="M325.9,319.5h-32.5c-2.4,0-4.4,2-4.4,4.4s2,4.4,4.4,4.4h32.5c2.4,0,4.4-2,4.4-4.4
			C330.3,321.5,328.3,319.5,325.9,319.5z"/>
	</g>
</g>
<g>
	<g>
		<path class="st1" d="M385,185.9c2.1,1.2,4.8,0.4,6-1.7c8.6-15.6,13.8-31.4,15-45.8c0.2-2.7-2.1-5-4.7-4.7
			c-16.8,1.4-35.1,8.2-52.7,19.1c-1.9-7.7-4.3-13.8-7.3-18.3c-4.6-7-10.6-10.6-17.8-10.6H131.7c-9.1,0-15.9,2.9-20.4,8.7
			c-8.6,11.2-4.1,28.7-3.9,29.5c0.5,1.9,2.3,3.3,4.3,3.3h38.7c3.9,25,3.7,60.6,3.5,93.3c-0.1,16.6-0.2,33.8,0.2,49.5
			c0.1,2.4,2.1,4.3,4.5,4.3c2.4-0.1,4.3-2.1,4.3-4.5c-0.4-15.5-0.3-32.6-0.2-49.2c0.2-39.2,0.4-77-5.1-102.4
			c-0.5-2.4-1.1-4.8-1.8-7.2c-1.9-6.7-4.4-12.2-7.5-16.3h175.2c8,0,13.6,8.3,17.3,25.2c-4.7,3.3-9.4,7-13.9,10.8
			c-10,8.7-19.3,18.5-27.3,29.2h-117c-2.4,0-4.4,2-4.4,4.4c0,2.4,2,4.4,4.4,4.4h110.8c-3.2,5-6.2,10-8.7,15.1H182.6
			c-2.4,0-4.4,2-4.4,4.4s2,4.4,4.4,4.4h98.1c-2.1,5.1-3.9,10.1-5.2,15.1h-92.9c-2.4,0-4.4,2-4.4,4.4s2,4.4,4.4,4.4h90.9
			c-0.4,2.1-0.6,4.2-0.9,6.2l-13.6,13.6c-1.7,1.7-1.7,4.5,0,6.2c1.7,1.7,4.5,1.7,6.2,0l13.6-13.6c8.1-0.8,16.1-2.8,23.8-5.6
			c7.9-2.8,15.6-6.5,22.8-10.7c7-4.1,13.7-8.7,20.1-13.7c0,7.2,0,14.5-0.1,21.6c-0.2,31.6-0.4,64.2,2.9,88.1c0,0-145.6,0-145.8,0
			c-2.8,0-4.9,2.7-4.3,5.4c0,0,0,0.1,0,0.1c0,0,0,0,0,0.1c0.2,1,3.2,14.1-2.2,21.5c0,0,0,0,0,0.1c-3.1,4.2-8.6,5.5-13.6,5.5
			c-10.7-0.1-16.9-17.8-19.1-54.1c-0.1-2.4-2.2-4.3-4.6-4.1c-2.4,0.1-4.3,2.2-4.1,4.6c1.7,29,6.4,62.4,27.9,62.4h191.8
			c9.1,0,15.9-2.9,20.4-8.7c8.6-11.2,4.1-28.7,3.9-29.5c-0.5-1.9-2.3-3.3-4.3-3.3h-37.2c-3.3-23.4-3.1-56.2-3-88.1
			c0.1-9.6,0.1-19.5,0.1-29.1c2.4-2.2,4.8-4.5,7.2-6.8c7.3-7.3,14-15.2,19.8-23.4c1.4-2,0.9-4.7-1-6.1c-2-1.4-4.7-0.9-6.1,1
			c-5.5,7.8-11.8,15.3-18.8,22.3c-5.5,5.5-11.4,10.7-17.6,15.4c-15.1,11.5-31.3,19.8-46.7,23.8c-0.5,0.1-1,0.3-1.5,0.4l78.1-78.1
			c1.7-1.7,1.7-4.5,0-6.2c-1.7-1.7-4.5-1.7-6.2,0l-78.1,78.1c0.1-0.5,0.2-0.9,0.3-1.4c4.5-17.2,13.1-32.8,23.9-46.8c0,0,0,0,0,0
			c0,0,0.1-0.1,0.1-0.1c10-13.1,22-24.9,35.3-34.6c17.5-12.8,36.3-21.3,53.5-23.9c-1.8,11.7-6.3,24.3-13.3,36.9
			C382.2,182,382.9,184.7,385,185.9z M148.6,156.5h-33.4v0c-0.2-1.4-0.4-3.2-0.4-5.2c-0.1-4,0.5-9.6,3.5-13.5
			c2.7-3.5,7-5.2,13.2-5.2l2.9,0.3c0,0,0.1,0,0.1,0c5.8,1.5,10.3,8.5,13.5,20.8C148.2,154.7,148.4,155.6,148.6,156.5z M390.8,355.5
			c0.7,4.7,1.2,13.2-3,18.6c-2.7,3.5-7.1,5.3-13.4,5.3H203.1c5.7-7.4,5.6-17.6,4.8-23.9H390.8z"/>
	</g>
</g>
</svg>
