<?xml version="1.0" encoding="utf-8"?>
<!-- Generator: Adobe Illustrator 24.2.1, SVG Export Plug-In . SVG Version: 6.00 Build 0)  -->
<svg version="1.1" id="Outline" xmlns="http://www.w3.org/2000/svg" xmlns:xlink="http://www.w3.org/1999/xlink" x="0px" y="0px"
	 viewBox="0 0 512 512" style="enable-background:new 0 0 512 512;" xml:space="preserve">
<style type="text/css">
	.st0{fill:#173A79;}
	.st1{fill:#FFFFFF;}
</style>
<circle class="st0" cx="255" cy="255" r="256"/>
<path class="st1" d="M384.1,171.9c-12.6-16.8-40.8-21.5-77.7-13c-0.8-1.9-1.6-3.8-2.4-5.6c7.2-7.8,6.8-20-1-27.2
	c-5.5-5.1-13.5-6.5-20.5-3.7c-8.3-7.4-17.1-11.1-26.4-11.1c-10.6,0-20.7,4.9-30,14.6c-7.8,8.1-14.6,19.2-20.4,33
	c-36.9-8.5-65.1-3.9-77.7,13c-14.4,19.1-6.1,50.4,21.9,84.1c-1.5,1.8-3,3.7-4.4,5.5c-10.3-2.9-20.9,3.1-23.7,13.4
	c-1.8,6.6-0.1,13.6,4.7,18.5c-7.7,18.9-7.2,35,1.6,46.6c8.5,11.3,24,17.1,44.5,17.1c10,0,21.1-1.4,33.2-4.2
	c5.8,13.8,12.6,24.9,20.4,33c9.3,9.7,19.4,14.6,30,14.6c10.6,0,20.7-4.9,30-14.6c7.8-8.1,14.6-19.2,20.4-33c2.6,0.6,5.1,1.1,7.6,1.6
	c1.2,10.6,10.8,18.1,21.4,16.9c8.2-1,14.9-7,16.6-15.1c14.4-2,25.4-7.6,32-16.4c14.4-19.1,6.1-50.4-21.9-84.1
	C390.2,222.3,398.4,191,384.1,171.9z M376.3,177.7c11.2,14.9,3.2,41.8-20.6,70.9c-10.6-11.6-22.2-22.2-34.7-31.9
	c-2.3-17.5-6.1-34.2-11.2-48.7C341.8,160.9,366.4,164.4,376.3,177.7L376.3,177.7z M300.5,341.6c-11.3-3.2-22.4-7.1-33.2-11.9
	c10.4-5.4,20.6-11.3,30.4-17.7c4.2-2.8,8.4-5.6,12.5-8.6C308,316.4,304.8,329.2,300.5,341.6L300.5,341.6z M211.6,341.6
	c-4.3-12.4-7.6-25.2-9.6-38.1c4.1,2.9,8.2,5.8,12.5,8.6c9.8,6.4,20,12.3,30.4,17.7C234,334.5,222.9,338.5,211.6,341.6L211.6,341.6z
	 M211.6,170.4c11.3,3.2,22.4,7.1,33.2,11.9c-10.4,5.4-20.6,11.3-30.4,17.7c-4.2,2.8-8.4,5.6-12.5,8.6
	C204,195.6,207.2,182.8,211.6,170.4L211.6,170.4z M219.7,304c-6.8-4.4-13.3-9.1-19.6-13.9c-2.6-22.7-2.6-45.5,0-68.2
	c6.3-4.8,12.8-9.4,19.6-13.9c11.7-7.6,23.8-14.5,36.3-20.6c12.5,6.1,24.7,13,36.3,20.6c6.8,4.4,13.3,9.1,19.6,13.9
	c1.3,11.3,1.9,22.7,1.9,34.1c0,11.4-0.6,22.8-1.9,34.1c-6.3,4.8-12.8,9.4-19.6,13.9c-11.7,7.6-23.8,14.5-36.3,20.6
	C243.5,318.5,231.4,311.6,219.7,304L219.7,304z M189.6,281.7c-9.6-7.9-18.6-16.5-26.9-25.7c8.3-9.2,17.3-17.8,26.9-25.7
	c-0.7,8.5-1.1,17.1-1.1,25.7C188.5,264.6,188.9,273.3,189.6,281.7L189.6,281.7z M300.5,170.4c4.3,12.4,7.6,25.2,9.6,38.1
	c-4.1-2.9-8.2-5.8-12.5-8.6c-9.8-6.4-20-12.3-30.4-17.7C278,177.5,289.1,173.5,300.5,170.4z M322.5,230.3
	c9.6,7.9,18.6,16.5,26.9,25.7c-8.3,9.2-17.3,17.8-26.9,25.7c0.7-8.5,1.1-17.1,1.1-25.7S323.2,238.7,322.5,230.3L322.5,230.3z
	 M299.4,140.3c0,5.3-4.3,9.6-9.6,9.6s-9.6-4.3-9.6-9.6s4.3-9.6,9.6-9.6C295.1,130.6,299.4,135,299.4,140.3z M256,121
	c6.3,0,12.5,2.5,18.5,7.4c-6.5,8.4-5.1,20.5,3.3,27.1c5,3.9,11.7,5.1,17.8,3.1c0.4,0.9,0.8,1.8,1.2,2.7c-14,4-27.7,9.1-40.9,15.4
	c-13.2-6.2-26.9-11.4-40.9-15.4C226.1,135.6,240.9,121,256,121z M135.7,177.7c9.9-13.3,34.6-16.8,66.5-9.7
	c-5.1,14.5-8.9,31.2-11.2,48.7c-12.4,9.6-24,20.3-34.7,31.9C132.5,219.5,124.5,192.6,135.7,177.7z M140.3,270.5
	c5.3,0,9.6,4.3,9.6,9.6s-4.3,9.6-9.6,9.6s-9.6-4.3-9.6-9.6C130.7,274.8,135,270.5,140.3,270.5z M135.7,334.3
	c-7.8-10.4-5.3-24.5-1-35.7c10.2,3.1,21-2.7,24-12.9c2.1-6.8,0.2-14.2-4.9-19.3c0.8-1,1.6-2,2.5-3.1c10.6,11.6,22.2,22.2,34.7,31.9
	c2.3,17.5,6.1,34.2,11.2,48.7C170.3,351.1,145.7,347.6,135.7,334.3z M256,391c-15.2,0-29.9-14.6-40.9-40.4c14-4,27.7-9.1,40.9-15.4
	c13.2,6.2,26.9,11.4,40.9,15.4C285.9,376.4,271.2,391,256,391z M333.2,362.1c-5.3,0-9.6-4.3-9.6-9.6s4.3-9.6,9.6-9.6
	s9.6,4.3,9.6,9.6C342.8,357.8,338.5,362.1,333.2,362.1z M376.3,334.3c-4.9,6.5-13.4,10.8-24.7,12.5c-3.1-10.2-13.9-15.9-24.1-12.8
	c-5.5,1.7-10,5.8-12.2,11.1c-1.8-0.3-3.6-0.7-5.5-1.1c5.1-14.5,8.9-31.2,11.2-48.7c12.4-9.6,24-20.3,34.7-31.9
	C379.6,292.5,387.5,319.4,376.3,334.3L376.3,334.3z"/>
<path class="st1" d="M256,217.4c-21.3,0-38.6,17.3-38.6,38.6s17.3,38.6,38.6,38.6s38.6-17.3,38.6-38.6
	C294.6,234.7,277.3,217.5,256,217.4z M256,284.9c-16,0-28.9-13-28.9-28.9s13-28.9,28.9-28.9S285,240,285,256
	C284.9,272,272,284.9,256,284.9z"/>
</svg>
